<svg width="134" height="16" viewBox="0 0 134 16" fill="none" xmlns="http://www.w3.org/2000/svg">
<path d="M1.53213 12H0.242126L0.802127 4.88002H3.80213C4.56213 4.88002 5.14213 5.06335 5.54213 5.43002C5.94879 5.79001 6.15213 6.25001 6.15213 6.81001C6.15213 7.51668 5.92546 8.06335 5.47213 8.45002C5.02546 8.83002 4.39879 9.02002 3.59213 9.02002H1.61213L1.66213 8.03001H3.48213C3.95546 8.03001 4.31546 7.93335 4.56213 7.74002C4.80879 7.54668 4.93213 7.26335 4.93213 6.89001C4.93213 6.57668 4.82879 6.33335 4.62213 6.16001C4.41546 5.98002 4.09546 5.89002 3.66213 5.89002H2.01213L1.53213 12Z" fill="#0F2651"/>
<path d="M9.0765 12.07C8.5565 12.07 8.1065 11.97 7.7265 11.77C7.3465 11.57 7.0565 11.2833 6.8565 10.91C6.6565 10.5367 6.5565 10.1 6.5565 9.60002C6.5565 9.03335 6.66317 8.54335 6.8765 8.13001C7.08983 7.71001 7.39317 7.38668 7.7865 7.16002C8.17983 6.93335 8.6365 6.82002 9.1565 6.82002C9.66984 6.82002 10.1132 6.92335 10.4865 7.13002C10.8665 7.33668 11.1565 7.62668 11.3565 8.00002C11.5632 8.36668 11.6665 8.79668 11.6665 9.29002C11.6665 9.87002 11.5598 10.3667 11.3465 10.78C11.1332 11.1933 10.8298 11.5133 10.4365 11.74C10.0498 11.96 9.5965 12.07 9.0765 12.07ZM9.0765 11.12C9.3765 11.12 9.6265 11.04 9.8265 10.88C10.0265 10.7133 10.1732 10.4933 10.2665 10.22C10.3665 9.94001 10.4165 9.62002 10.4165 9.26002C10.4165 8.78002 10.3098 8.41668 10.0965 8.17002C9.88317 7.91668 9.57317 7.79001 9.1665 7.79001C8.85317 7.79001 8.5965 7.87001 8.3965 8.03001C8.1965 8.19001 8.0465 8.41001 7.9465 8.69001C7.8465 8.97002 7.7965 9.28335 7.7965 9.63001C7.7965 10.1233 7.90317 10.4967 8.1165 10.75C8.3365 10.9967 8.6565 11.12 9.0765 11.12Z" fill="#0F2651"/>
<path d="M13.8663 12L12.2863 6.95002H13.5463L14.6563 10.86H14.3963L16.1363 6.95002H17.0563L18.1663 10.86H17.9263L19.6563 6.95002H20.9063L18.5263 12H17.4363L16.1963 7.93002H16.7763L14.9663 12H13.8663Z" fill="#0F2651"/>
<path d="M25.6063 11.44C25.3797 11.64 25.093 11.7967 24.7463 11.91C24.4063 12.0167 24.053 12.07 23.6863 12.07C23.1663 12.07 22.7163 11.97 22.3363 11.77C21.9563 11.57 21.663 11.2867 21.4563 10.92C21.2497 10.5467 21.1463 10.11 21.1463 9.61002C21.1463 9.05668 21.253 8.57002 21.4663 8.15002C21.6797 7.73002 21.9763 7.40335 22.3563 7.17002C22.7363 6.93668 23.173 6.82002 23.6663 6.82002C24.153 6.82002 24.5697 6.92668 24.9163 7.14001C25.263 7.34668 25.5163 7.65335 25.6763 8.06001C25.843 8.46668 25.8897 8.96002 25.8163 9.54002H22.2363L22.2863 8.87002H25.1363L24.7863 9.05001C24.8263 8.61668 24.7463 8.28668 24.5463 8.06001C24.3463 7.82668 24.073 7.71002 23.7263 7.71002C23.2863 7.71002 22.9463 7.86668 22.7063 8.18002C22.473 8.49335 22.3563 8.96668 22.3563 9.60002C22.3563 10.0867 22.473 10.4633 22.7063 10.73C22.9463 10.99 23.2963 11.12 23.7563 11.12C24.043 11.12 24.3163 11.0767 24.5763 10.99C24.8363 10.9033 25.083 10.77 25.3163 10.59L25.6063 11.44Z" fill="#0F2651"/>
<path d="M26.6849 12L26.9749 8.38002C26.9949 8.14668 27.0082 7.91001 27.0149 7.67001C27.0215 7.42335 27.0182 7.18335 27.0049 6.95002H28.1849L28.2249 8.25002L28.0849 8.00002C28.2049 7.63335 28.4249 7.34668 28.7449 7.14001C29.0715 6.93335 29.4282 6.83002 29.8149 6.83002C29.9082 6.83002 29.9982 6.83668 30.0849 6.85001C30.1782 6.86335 30.2549 6.88335 30.3149 6.91002L30.2249 8.04001C30.1182 8.00002 30.0115 7.97002 29.9049 7.95002C29.7982 7.92335 29.6849 7.91002 29.5649 7.91002C29.2715 7.91002 29.0215 7.97002 28.8149 8.09001C28.6149 8.20335 28.4615 8.36335 28.3549 8.57001C28.2482 8.77001 28.1849 9.00335 28.1649 9.27002L27.9349 12H26.6849Z" fill="#0F2651"/>
<path d="M34.9032 11.44C34.6766 11.64 34.3899 11.7967 34.0432 11.91C33.7032 12.0167 33.3499 12.07 32.9832 12.07C32.4632 12.07 32.0132 11.97 31.6332 11.77C31.2532 11.57 30.9599 11.2867 30.7532 10.92C30.5466 10.5467 30.4432 10.11 30.4432 9.61002C30.4432 9.05668 30.5499 8.57002 30.7632 8.15002C30.9766 7.73002 31.2732 7.40335 31.6532 7.17002C32.0332 6.93668 32.4699 6.82002 32.9632 6.82002C33.4499 6.82002 33.8666 6.92668 34.2132 7.14001C34.5599 7.34668 34.8132 7.65335 34.9732 8.06001C35.1399 8.46668 35.1866 8.96002 35.1132 9.54002H31.5332L31.5832 8.87002H34.4332L34.0832 9.05001C34.1232 8.61668 34.0432 8.28668 33.8432 8.06001C33.6432 7.82668 33.3699 7.71002 33.0232 7.71002C32.5832 7.71002 32.2432 7.86668 32.0032 8.18002C31.7699 8.49335 31.6532 8.96668 31.6532 9.60002C31.6532 10.0867 31.7699 10.4633 32.0032 10.73C32.2432 10.99 32.5932 11.12 33.0532 11.12C33.3399 11.12 33.6132 11.0767 33.8732 10.99C34.1332 10.9033 34.3799 10.77 34.6132 10.59L34.9032 11.44Z" fill="#0F2651"/>
<path d="M38.0617 12.07C37.6417 12.07 37.2684 11.9733 36.9417 11.78C36.6151 11.5867 36.3617 11.3067 36.1817 10.94C36.0084 10.5733 35.9217 10.1433 35.9217 9.65001C35.9217 9.09001 36.0184 8.60002 36.2117 8.18002C36.4117 7.75335 36.6917 7.42002 37.0517 7.18002C37.4117 6.94002 37.8317 6.82002 38.3117 6.82002C38.7251 6.82002 39.0784 6.91335 39.3717 7.10002C39.6651 7.28668 39.8817 7.55002 40.0217 7.89002L39.8817 8.15002L40.1517 4.64001H41.4117L40.8217 12H39.5917L39.6817 10.72L39.7917 11.02C39.7051 11.24 39.5751 11.43 39.4017 11.59C39.2284 11.75 39.0284 11.87 38.8017 11.95C38.5751 12.03 38.3284 12.07 38.0617 12.07ZM38.4617 11.12C38.8751 11.12 39.2017 10.96 39.4417 10.64C39.6817 10.3133 39.8017 9.87668 39.8017 9.33002C39.8017 8.82335 39.6917 8.44002 39.4717 8.18002C39.2517 7.92002 38.9384 7.79001 38.5317 7.79001C38.1051 7.79001 37.7684 7.95001 37.5217 8.27002C37.2817 8.59002 37.1617 9.02668 37.1617 9.58002C37.1617 10.0733 37.2751 10.4533 37.5017 10.72C37.7284 10.9867 38.0484 11.12 38.4617 11.12Z" fill="#0F2651"/>
<path d="M47.8573 12.07C47.4373 12.07 47.0806 11.98 46.7873 11.8C46.5006 11.6133 46.2839 11.35 46.1373 11.01L46.2773 10.72L46.1673 12H44.9273L45.5073 4.64001H46.7573L46.4773 8.15002L46.3673 7.89002C46.4606 7.67001 46.5906 7.48001 46.7573 7.32001C46.9306 7.16002 47.1306 7.03668 47.3573 6.95002C47.5906 6.86335 47.8406 6.82002 48.1073 6.82002C48.5273 6.82002 48.8973 6.92002 49.2173 7.12001C49.5439 7.31335 49.7973 7.59335 49.9773 7.96002C50.164 8.32001 50.2573 8.75335 50.2573 9.26002C50.2573 9.82002 50.154 10.3133 49.9473 10.74C49.7473 11.16 49.4673 11.4867 49.1073 11.72C48.7473 11.9533 48.3306 12.07 47.8573 12.07ZM47.6473 11.12C48.0673 11.12 48.3973 10.96 48.6373 10.64C48.8839 10.32 49.0073 9.88001 49.0073 9.32001C49.0073 8.83335 48.8939 8.45668 48.6673 8.19002C48.4406 7.92335 48.1206 7.79001 47.7073 7.79001C47.2939 7.79001 46.9639 7.95335 46.7173 8.28002C46.4773 8.60002 46.3573 9.03335 46.3573 9.58002C46.3573 10.0867 46.4673 10.47 46.6873 10.73C46.9139 10.99 47.2339 11.12 47.6473 11.12Z" fill="#0F2651"/>
<path d="M52.6603 12.33L50.7503 6.95002H52.0203L53.3403 10.91L52.6603 12.33ZM50.7603 14.27L50.5503 13.31C50.8703 13.2433 51.137 13.1633 51.3503 13.07C51.5637 12.9767 51.7403 12.86 51.8803 12.72C52.027 12.58 52.157 12.4033 52.2703 12.19L52.6003 11.59L53.0503 10.91L54.9803 6.95002H56.2403L53.4403 12.34C53.2137 12.78 52.9637 13.13 52.6903 13.39C52.4237 13.6567 52.1303 13.8567 51.8103 13.99C51.4903 14.1233 51.1403 14.2167 50.7603 14.27Z" fill="#0F2651"/>
<path d="M77.6182 6.03733C77.5014 6.48334 77.2751 6.81074 76.9392 7.01972C76.6029 7.22869 76.1312 7.33344 75.5228 7.33344H73.5899L74.2684 4.74146H76.2014C76.8093 4.74146 77.2267 4.84597 77.4534 5.05494C77.6797 5.2642 77.735 5.59155 77.6182 6.03733ZM79.6199 5.98152C79.8657 5.04363 79.7638 4.32351 79.3144 3.82188C78.8648 3.32029 78.0772 3.06958 76.9523 3.06958H72.6375L70.0406 12.9902H72.1369L73.1839 8.9912H74.5586C74.8669 8.9912 75.1095 9.04242 75.287 9.14456C75.4649 9.24699 75.569 9.42814 75.6011 9.68789L75.975 12.9902H78.2211L77.8567 9.91102C77.7825 9.22357 77.4752 8.81949 76.9351 8.69879C77.6236 8.49465 78.2003 8.15526 78.6648 7.68142C79.1288 7.20786 79.4474 6.64134 79.6199 5.98152Z" fill="#0F2651"/>
<path d="M84.7147 9.43732C84.5396 10.106 84.2697 10.6171 83.9054 10.9699C83.5405 11.323 83.1041 11.4994 82.5963 11.4994C82.0784 11.4994 81.7271 11.3254 81.542 10.9769C81.3559 10.6287 81.3496 10.125 81.5225 9.46511C81.695 8.80572 81.9702 8.29022 82.3491 7.91832C82.7275 7.54715 83.1707 7.36112 83.679 7.36112C84.1869 7.36112 84.5309 7.54019 84.7093 7.89773C84.8877 8.25523 84.8899 8.76841 84.7147 9.43732ZM85.6336 5.926L85.3711 6.92926C85.2574 6.56688 85.0379 6.27911 84.7129 6.06549C84.3875 5.85188 83.9841 5.74481 83.5034 5.74481C82.9136 5.74481 82.3464 5.90054 81.8023 6.2117C81.2582 6.52306 80.7824 6.96188 80.3755 7.5284C79.9685 8.09511 79.6702 8.74063 79.4805 9.46511C79.2909 10.1899 79.2528 10.8284 79.3669 11.381C79.481 11.9338 79.7281 12.3587 80.1088 12.656C80.4891 12.9535 80.9789 13.1018 81.5778 13.1018C82.0585 13.1018 82.5166 12.9996 82.9512 12.7952C83.3857 12.5911 83.7546 12.3076 84.0583 11.9454L83.7845 12.9903H85.8124L87.6616 5.926H85.6336Z" fill="#0F2651"/>
<path d="M94.9536 5.9259H89.0599L88.6479 7.50047H92.0778L87.543 11.5132L87.1559 12.9902H93.2402L93.6526 11.4159H89.9779L94.5815 7.34711L94.9536 5.9259Z" fill="#0F2651"/>
<path d="M100.142 9.4234C99.96 10.1199 99.6898 10.6405 99.3322 10.9841C98.9746 11.3277 98.5418 11.4994 98.0339 11.4994C96.972 11.4994 96.6225 10.8077 96.9846 9.4234C97.1648 8.73595 97.4364 8.21813 97.7995 7.86991C98.1629 7.52144 98.6029 7.34721 99.1203 7.34721C99.6282 7.34721 99.9709 7.52144 100.147 7.86991C100.324 8.21813 100.323 8.73595 100.142 9.4234ZM101.329 6.19059C100.862 5.89354 100.266 5.74481 99.5399 5.74481C98.8048 5.74481 98.124 5.89354 97.4971 6.19059C96.8701 6.48808 96.3364 6.91535 95.896 7.47255C95.4551 8.02999 95.1373 8.68014 94.9427 9.4234C94.748 10.1667 94.7254 10.8166 94.8748 11.374C95.0237 11.9315 95.3333 12.3587 95.805 12.656C96.2762 12.9535 96.8792 13.1018 97.6143 13.1018C98.3404 13.1018 99.0144 12.9535 99.6368 12.656C100.258 12.3587 100.79 11.9315 101.231 11.374C101.672 10.8166 101.989 10.1667 102.184 9.4234C102.379 8.68014 102.401 8.02999 102.252 7.47255C102.103 6.91535 101.795 6.48808 101.329 6.19059Z" fill="#0F2651"/>
<path d="M122.54 9.43732C122.365 10.106 122.095 10.6171 121.73 10.9699C121.366 11.323 120.929 11.4994 120.421 11.4994C119.904 11.4994 119.552 11.3254 119.367 10.9769C119.181 10.6287 119.175 10.125 119.348 9.46511C119.52 8.80572 119.795 8.29022 120.174 7.91832C120.553 7.54715 120.996 7.36112 121.504 7.36112C122.012 7.36112 122.356 7.54019 122.534 7.89773C122.713 8.25523 122.715 8.76841 122.54 9.43732ZM123.459 5.926L123.196 6.92926C123.083 6.56688 122.863 6.27911 122.538 6.06549C122.213 5.85188 121.809 5.74481 121.328 5.74481C120.739 5.74481 120.171 5.90054 119.627 6.2117C119.083 6.52306 118.608 6.96188 118.201 7.5284C117.794 8.09511 117.495 8.74063 117.306 9.46511C117.116 10.1899 117.078 10.8284 117.192 11.381C117.306 11.9338 117.553 12.3587 117.934 12.656C118.314 12.9535 118.804 13.1018 119.403 13.1018C119.884 13.1018 120.342 12.9996 120.776 12.7952C121.211 12.5911 121.58 12.3076 121.883 11.9454L121.61 12.9903H123.638L125.487 5.926H123.459Z" fill="#0F2651"/>
<path d="M108.559 7.82101L109.076 5.89818C108.901 5.8053 108.668 5.75873 108.378 5.75873C107.915 5.75873 107.469 5.87711 107.039 6.11415C106.67 6.31745 106.356 6.6029 106.091 6.96052L106.36 5.925L105.773 5.926H104.332L102.469 12.9903H104.525L105.492 9.29807C105.632 8.75938 105.885 8.33907 106.25 8.03718C106.615 7.73529 107.07 7.58421 107.614 7.58421C107.95 7.58421 108.265 7.66325 108.559 7.82101Z" fill="#0F2651"/>
<path d="M114.282 9.46486C114.109 10.1247 113.841 10.6284 113.478 10.9767C113.114 11.3251 112.679 11.4991 112.171 11.4991C111.663 11.4991 111.316 11.3228 111.132 10.9697C110.947 10.6168 110.943 10.106 111.118 9.43708C111.293 8.76818 111.566 8.25495 111.936 7.89745C112.306 7.53995 112.746 7.36088 113.254 7.36088C113.753 7.36088 114.092 7.54691 114.272 7.91832C114.451 8.28993 114.455 8.80571 114.282 9.46486ZM115.719 6.21146C115.337 5.90025 114.852 5.74481 114.262 5.74481C113.745 5.74481 113.252 5.86551 112.786 6.10695C112.319 6.34883 111.94 6.67806 111.649 7.09625L111.656 7.04992L112.001 5.92476H111.604V5.92576H109.994L109.483 7.87926C109.477 7.90197 109.472 7.92316 109.466 7.94611L107.358 15.9998H109.414L110.475 11.9454C110.579 12.3073 110.796 12.5909 111.123 12.795C111.451 12.9993 111.855 13.1015 112.337 13.1015C112.936 13.1015 113.505 12.9532 114.046 12.6557C114.586 12.3587 115.056 11.9336 115.455 11.3807C115.853 10.8284 116.148 10.1896 116.337 9.46486C116.527 8.74035 116.566 8.09487 116.456 7.52815C116.346 6.96164 116.1 6.52282 115.719 6.21146Z" fill="#0F2651"/>
<path d="M133.999 5.92786L134 5.9259H132.755C132.715 5.9259 132.68 5.92706 132.644 5.92786H131.998L131.667 6.39914C131.641 6.43465 131.614 6.47039 131.586 6.51185L131.55 6.56642L128.923 10.3105L128.379 5.9259H126.228L127.317 12.5885L124.911 15.9999H124.98H126.208H127.055L127.638 15.1545C127.655 15.1293 127.67 15.1087 127.688 15.0821L128.368 14.0947L128.388 14.0664L131.432 9.64887L133.997 5.93078L134 5.92786H133.999Z" fill="#0F2651"/>
<path d="M64.758 4.20621L64.1426 6.52436L67.6637 4.19317L65.361 12.9882L67.6994 12.9903L71.101 0L64.758 4.20621Z" fill="#3395FF"/>
<path d="M60.9681 9.293L60 12.9903H64.7931C64.7931 12.9903 66.7535 5.47077 66.7541 5.46857C66.7523 5.46977 60.9681 9.293 60.9681 9.293Z" fill="#0F2651"/>
</svg>
